<svg width="1920" height="1080" viewBox="0 0 1920 1080" fill="none" xmlns="http://www.w3.org/2000/svg">
<g clip-path="url(#clip0_154_2)">
<rect width="1920" height="1080" fill="#161B40"/>
<path d="M574.609 944.178V967.762H452.441V944.178H574.609ZM574.609 1004.97V1028.55H452.441V1004.97H574.609Z" fill="#161B40"/>
<path d="M574.609 944.178H578.609V940.178H574.609V944.178ZM574.609 967.762V971.762H578.609V967.762H574.609ZM452.441 967.762H448.441V971.762H452.441V967.762ZM452.441 944.178V940.178H448.441V944.178H452.441ZM574.609 1004.97H578.609V1000.97H574.609V1004.97ZM574.609 1028.55V1032.55H578.609V1028.55H574.609ZM452.441 1028.55H448.441V1032.55H452.441V1028.55ZM452.441 1004.97V1000.97H448.441V1004.97H452.441ZM570.609 944.178V967.762H578.609V944.178H570.609ZM574.609 963.762H452.441V971.762H574.609V963.762ZM456.441 967.762V944.178H448.441V967.762H456.441ZM452.441 948.178H574.609V940.178H452.441V948.178ZM570.609 1004.97V1028.55H578.609V1004.97H570.609ZM574.609 1024.55H452.441V1032.55H574.609V1024.55ZM456.441 1028.55V1004.97H448.441V1028.55H456.441ZM452.441 1008.97H574.609V1000.97H452.441V1008.97Z" fill="white" fill-opacity="0.05"/>
<path d="M873.885 743.471L941.226 742.262L908.821 682.959L924.715 655.43L966.53 739.45L1062.78 733.283L1047.11 760.431L977.293 762.409L1010.49 823.86L994.74 851.135L951.882 764.822L858.284 770.492L873.885 743.471Z" fill="#161B40"/>
<path d="M873.885 743.471L873.813 739.471L871.552 739.512L870.421 741.471L873.885 743.471ZM941.226 742.262L941.298 746.262L947.904 746.143L944.736 740.344L941.226 742.262ZM908.821 682.959L905.357 680.959L904.234 682.905L905.311 684.877L908.821 682.959ZM924.715 655.43L928.296 653.648L924.976 646.978L921.251 653.43L924.715 655.43ZM966.53 739.45L962.949 741.232L964.133 743.612L966.786 743.442L966.53 739.45ZM1062.78 733.283L1066.25 735.283L1069.98 728.813L1062.53 729.291L1062.78 733.283ZM1047.11 760.431L1047.22 764.429L1049.46 764.366L1050.57 762.431L1047.11 760.431ZM977.293 762.409L977.18 758.411L970.686 758.595L973.774 764.31L977.293 762.409ZM1010.49 823.86L1013.95 825.86L1015.07 823.925L1014.01 821.959L1010.49 823.86ZM994.74 851.135L991.158 852.914L994.475 859.595L998.204 853.135L994.74 851.135ZM951.882 764.822L955.464 763.043L954.285 760.669L951.64 760.829L951.882 764.822ZM858.284 770.492L854.82 768.492L851.101 774.934L858.526 774.484L858.284 770.492ZM873.957 747.47L941.298 746.262L941.154 738.263L873.813 739.471L873.957 747.47ZM944.736 740.344L912.332 681.041L905.311 684.877L937.716 744.18L944.736 740.344ZM912.285 684.959L928.179 657.43L921.251 653.43L905.357 680.959L912.285 684.959ZM921.134 657.213L962.949 741.232L970.111 737.668L928.296 653.648L921.134 657.213ZM966.786 743.442L1063.04 737.275L1062.53 729.291L966.274 735.458L966.786 743.442ZM1059.32 731.283L1043.64 758.431L1050.57 762.431L1066.25 735.283L1059.32 731.283ZM1047 756.432L977.18 758.411L977.406 766.408L1047.22 764.429L1047 756.432ZM973.774 764.31L1006.97 825.761L1014.01 821.959L980.812 760.508L973.774 764.31ZM1007.02 821.86L991.276 849.135L998.204 853.135L1013.95 825.86L1007.02 821.86ZM998.323 849.356L955.464 763.043L948.299 766.601L991.158 852.914L998.323 849.356ZM951.64 760.829L858.042 766.499L858.526 774.484L952.123 768.814L951.64 760.829ZM861.748 772.492L877.349 745.471L870.421 741.471L854.82 768.492L861.748 772.492Z" fill="white" fill-opacity="0.1"/>
<path d="M506.518 681.014V669.734C506.518 661.629 508.275 654.256 511.791 647.615C515.307 640.975 520.336 635.652 526.879 631.648C533.422 627.645 541.186 625.643 550.17 625.643C559.35 625.643 567.162 627.645 573.607 631.648C580.15 635.652 585.18 640.975 588.695 647.615C592.211 654.256 593.969 661.629 593.969 669.734V681.014C593.969 688.924 592.211 696.199 588.695 702.84C585.277 709.48 580.297 714.803 573.754 718.807C567.309 722.811 559.545 724.812 550.463 724.812C541.381 724.812 533.52 722.811 526.879 718.807C520.336 714.803 515.307 709.48 511.791 702.84C508.275 696.199 506.518 688.924 506.518 681.014ZM526.879 669.734V681.014C526.879 685.506 527.709 689.754 529.369 693.758C531.127 697.762 533.764 701.033 537.279 703.572C540.795 706.014 545.189 707.234 550.463 707.234C555.736 707.234 560.082 706.014 563.5 703.572C566.918 701.033 569.457 697.762 571.117 693.758C572.777 689.754 573.607 685.506 573.607 681.014V669.734C573.607 665.145 572.729 660.848 570.971 656.844C569.311 652.742 566.723 649.471 563.207 647.029C559.789 644.49 555.443 643.221 550.17 643.221C544.994 643.221 540.648 644.49 537.133 647.029C533.715 649.471 531.127 652.742 529.369 656.844C527.709 660.848 526.879 665.145 526.879 669.734ZM610.375 801.131V789.705C610.375 781.697 612.133 774.373 615.648 767.732C619.164 761.092 624.193 755.77 630.736 751.766C637.279 747.762 645.043 745.76 654.027 745.76C663.207 745.76 671.02 747.762 677.465 751.766C684.008 755.77 689.037 761.092 692.553 767.732C696.068 774.373 697.826 781.697 697.826 789.705V801.131C697.826 809.139 696.068 816.463 692.553 823.104C689.135 829.744 684.154 835.066 677.611 839.07C671.166 843.074 663.402 845.076 654.32 845.076C645.238 845.076 637.426 843.074 630.883 839.07C624.34 835.066 619.262 829.744 615.648 823.104C612.133 816.463 610.375 809.139 610.375 801.131ZM630.736 789.705V801.131C630.736 805.623 631.566 809.92 633.227 814.021C634.984 818.025 637.621 821.297 641.137 823.836C644.652 826.277 649.047 827.498 654.32 827.498C659.594 827.498 663.939 826.277 667.357 823.836C670.873 821.297 673.461 818.025 675.121 814.021C676.781 810.018 677.611 805.721 677.611 801.131V789.705C677.611 785.115 676.732 780.818 674.975 776.814C673.314 772.811 670.727 769.588 667.211 767.146C663.793 764.607 659.398 763.338 654.027 763.338C648.852 763.338 644.506 764.607 640.99 767.146C637.572 769.588 634.984 772.811 633.227 776.814C631.566 780.818 630.736 785.115 630.736 789.705ZM660.766 659.041L556.615 825.74L541.381 816.072L645.531 649.373L660.766 659.041Z" fill="#161B40"/>
<path d="M573.607 631.648L571.497 635.046L571.508 635.053L571.52 635.06L573.607 631.648ZM588.695 702.84L585.16 700.968L585.149 700.989L585.139 701.009L588.695 702.84ZM573.754 718.807L571.666 715.395L571.655 715.402L571.643 715.409L573.754 718.807ZM526.879 718.807L524.791 722.219L524.802 722.225L524.814 722.232L526.879 718.807ZM529.369 693.758L525.674 695.29L525.69 695.328L525.707 695.366L529.369 693.758ZM537.279 703.572L534.937 706.815L534.967 706.837L534.998 706.858L537.279 703.572ZM563.5 703.572L565.825 706.827L565.855 706.806L565.885 706.783L563.5 703.572ZM570.971 656.844L567.263 658.345L567.285 658.398L567.308 658.452L570.971 656.844ZM563.207 647.029L560.822 650.24L560.873 650.278L560.925 650.315L563.207 647.029ZM537.133 647.029L539.458 650.284L539.466 650.278L539.475 650.272L537.133 647.029ZM529.369 656.844L525.693 655.268L525.683 655.29L525.674 655.312L529.369 656.844ZM677.465 751.766L675.354 755.163L675.366 755.17L675.377 755.177L677.465 751.766ZM692.553 823.104L689.018 821.232L689.007 821.252L688.996 821.273L692.553 823.104ZM677.611 839.07L675.523 835.658L675.512 835.665L675.501 835.673L677.611 839.07ZM615.648 823.104L612.113 824.975L612.124 824.995L612.135 825.015L615.648 823.104ZM633.227 814.021L629.519 815.522L629.541 815.576L629.564 815.629L633.227 814.021ZM641.137 823.836L638.795 827.079L638.825 827.1L638.855 827.121L641.137 823.836ZM667.357 823.836L669.682 827.091L669.691 827.085L669.699 827.079L667.357 823.836ZM674.975 776.814L671.28 778.347L671.295 778.385L671.312 778.422L674.975 776.814ZM667.211 767.146L664.826 770.357L664.877 770.396L664.929 770.432L667.211 767.146ZM640.99 767.146L643.315 770.401L643.324 770.395L643.332 770.389L640.99 767.146ZM633.227 776.814L629.564 775.206L629.547 775.244L629.532 775.282L633.227 776.814ZM660.766 659.041L664.158 661.16L666.263 657.792L662.909 655.664L660.766 659.041ZM556.615 825.74L554.472 829.118L557.873 831.276L560.008 827.86L556.615 825.74ZM541.381 816.072L537.989 813.953L535.884 817.321L539.238 819.45L541.381 816.072ZM645.531 649.373L647.675 645.996L644.273 643.837L642.139 647.254L645.531 649.373ZM510.518 681.014V669.734H502.518V681.014H510.518ZM510.518 669.734C510.518 662.229 512.14 655.506 515.326 649.487L508.256 645.744C504.411 653.006 502.518 661.029 502.518 669.734H510.518ZM515.326 649.487C518.499 643.494 523.022 638.698 528.967 635.06L524.791 628.237C517.65 632.607 512.114 638.455 508.256 645.744L515.326 649.487ZM528.967 635.06C534.78 631.503 541.794 629.643 550.17 629.643V621.643C540.577 621.643 532.063 623.786 524.791 628.237L528.967 635.06ZM550.17 629.643C558.761 629.643 565.807 631.511 571.497 635.046L575.718 628.251C568.518 623.778 559.938 621.643 550.17 621.643V629.643ZM571.52 635.06C577.464 638.698 581.987 643.494 585.16 649.487L592.23 645.744C588.372 638.455 582.837 632.607 575.695 628.237L571.52 635.06ZM585.16 649.487C588.347 655.506 589.969 662.229 589.969 669.734H597.969C597.969 661.029 596.075 653.006 592.23 645.744L585.16 649.487ZM589.969 669.734V681.014H597.969V669.734H589.969ZM589.969 681.014C589.969 688.307 588.354 694.935 585.16 700.968L592.23 704.711C596.068 697.464 597.969 689.541 597.969 681.014H589.969ZM585.139 701.009C582.066 706.98 577.602 711.763 571.666 715.395L575.842 722.219C582.992 717.843 588.489 711.981 592.252 704.67L585.139 701.009ZM571.643 715.409C565.947 718.948 558.947 720.812 550.463 720.812V728.812C560.143 728.812 568.671 726.673 575.865 722.204L571.643 715.409ZM550.463 720.812C541.983 720.812 534.862 718.949 528.944 715.381L524.814 722.232C532.177 726.672 540.779 728.812 550.463 728.812V720.812ZM528.967 715.395C523.022 711.757 518.499 706.961 515.326 700.968L508.256 704.711C512.114 712 517.65 717.848 524.791 722.219L528.967 715.395ZM515.326 700.968C512.132 694.935 510.518 688.307 510.518 681.014H502.518C502.518 689.541 504.419 697.464 508.256 704.711L515.326 700.968ZM522.879 669.734V681.014H530.879V669.734H522.879ZM522.879 681.014C522.879 686.012 523.805 690.783 525.674 695.29L533.064 692.226C531.613 688.725 530.879 685 530.879 681.014H522.879ZM525.707 695.366C527.748 700.017 530.839 703.855 534.937 706.815L539.621 700.33C536.689 698.212 534.505 695.507 533.032 692.15L525.707 695.366ZM534.998 706.858C539.325 709.863 544.565 711.234 550.463 711.234V703.234C545.814 703.234 542.265 702.165 539.561 700.287L534.998 706.858ZM550.463 711.234C556.355 711.234 561.573 709.865 565.825 706.827L561.175 700.317C558.591 702.163 555.117 703.234 550.463 703.234V711.234ZM565.885 706.783C569.894 703.805 572.88 699.949 574.812 695.29L567.422 692.226C566.034 695.575 563.942 698.261 561.115 700.361L565.885 706.783ZM574.812 695.29C576.681 690.783 577.607 686.012 577.607 681.014H569.607C569.607 685 568.874 688.725 567.422 692.226L574.812 695.29ZM577.607 681.014V669.734H569.607V681.014H577.607ZM577.607 669.734C577.607 664.619 576.625 659.772 574.633 655.236L567.308 658.452C568.832 661.924 569.607 665.67 569.607 669.734H577.607ZM574.678 655.343C572.737 650.546 569.665 646.644 565.489 643.744L560.925 650.315C563.78 652.297 565.884 654.938 567.263 658.345L574.678 655.343ZM565.592 643.818C561.334 640.655 556.094 639.221 550.17 639.221V647.221C554.793 647.221 558.244 648.325 560.822 650.24L565.592 643.818ZM550.17 639.221C544.32 639.221 539.112 640.666 534.791 643.787L539.475 650.272C542.185 648.315 545.668 647.221 550.17 647.221V639.221ZM534.808 643.774C530.757 646.668 527.72 650.537 525.693 655.268L533.046 658.419C534.534 654.947 536.673 652.273 539.458 650.284L534.808 643.774ZM525.674 655.312C523.801 659.829 522.879 664.65 522.879 669.734H530.879C530.879 665.639 531.617 661.866 533.064 658.376L525.674 655.312ZM614.375 801.131V789.705H606.375V801.131H614.375ZM614.375 789.705C614.375 782.306 615.993 775.63 619.184 769.604L612.113 765.861C608.272 773.116 606.375 781.089 606.375 789.705H614.375ZM619.184 769.604C622.356 763.611 626.88 758.815 632.824 755.177L628.648 748.354C621.507 752.724 615.972 758.573 612.113 765.861L619.184 769.604ZM632.824 755.177C638.638 751.62 645.652 749.76 654.027 749.76V741.76C644.434 741.76 635.921 743.904 628.648 748.354L632.824 755.177ZM654.027 749.76C662.618 749.76 669.664 751.629 675.354 755.163L679.576 748.368C672.375 743.895 663.796 741.76 654.027 741.76V749.76ZM675.377 755.177C681.322 758.815 685.845 763.611 689.018 769.604L696.088 765.861C692.229 758.573 686.694 752.724 679.553 748.354L675.377 755.177ZM689.018 769.604C692.208 775.63 693.826 782.306 693.826 789.705H701.826C701.826 781.089 699.929 773.116 696.088 765.861L689.018 769.604ZM693.826 789.705V801.131H701.826V789.705H693.826ZM693.826 801.131C693.826 808.53 692.208 815.206 689.018 821.232L696.088 824.975C699.929 817.72 701.826 809.747 701.826 801.131H693.826ZM688.996 821.273C685.923 827.244 681.459 832.026 675.523 835.658L679.699 842.482C686.85 838.107 692.346 832.245 696.109 824.934L688.996 821.273ZM675.501 835.673C669.804 839.211 662.805 841.076 654.32 841.076V849.076C664 849.076 672.528 846.937 679.722 842.468L675.501 835.673ZM654.32 841.076C645.838 841.076 638.778 839.212 632.971 835.658L628.795 842.482C636.074 846.936 644.638 849.076 654.32 849.076V841.076ZM632.971 835.658C627.017 832.015 622.435 827.207 619.162 821.192L612.135 825.015C616.089 832.282 621.663 838.118 628.795 842.482L632.971 835.658ZM619.184 821.232C615.993 815.206 614.375 808.53 614.375 801.131H606.375C606.375 809.747 608.272 817.72 612.113 824.975L619.184 821.232ZM626.736 789.705V801.131H634.736V789.705H626.736ZM626.736 801.131C626.736 806.129 627.663 810.936 629.519 815.522L636.934 812.521C635.47 808.903 634.736 805.117 634.736 801.131H626.736ZM629.564 815.629C631.606 820.281 634.696 824.118 638.795 827.079L643.479 820.593C640.546 818.475 638.363 815.77 636.889 812.414L629.564 815.629ZM638.855 827.121C643.182 830.126 648.423 831.498 654.32 831.498V823.498C649.671 823.498 646.122 822.428 643.418 820.55L638.855 827.121ZM654.32 831.498C660.213 831.498 665.43 830.128 669.682 827.091L665.032 820.581C662.449 822.426 658.975 823.498 654.32 823.498V831.498ZM669.699 827.079C673.815 824.106 676.872 820.242 678.816 815.554L671.426 812.489C670.05 815.808 667.931 818.488 665.015 820.593L669.699 827.079ZM678.816 815.554C680.689 811.036 681.611 806.215 681.611 801.131H673.611C673.611 805.226 672.873 808.999 671.426 812.489L678.816 815.554ZM681.611 801.131V789.705H673.611V801.131H681.611ZM681.611 789.705C681.611 784.59 680.629 779.742 678.637 775.206L671.312 778.422C672.836 781.894 673.611 785.641 673.611 789.705H681.611ZM678.67 775.282C676.72 770.58 673.646 766.745 669.493 763.861L664.929 770.432C667.807 772.43 669.909 775.041 671.28 778.347L678.67 775.282ZM669.596 763.936C665.326 760.763 660.031 759.338 654.027 759.338V767.338C658.766 767.338 662.26 768.451 664.826 770.357L669.596 763.936ZM654.027 759.338C648.178 759.338 642.969 760.783 638.648 763.904L643.332 770.389C646.042 768.432 649.526 767.338 654.027 767.338V759.338ZM638.665 763.892C634.637 766.769 631.599 770.571 629.564 775.206L636.889 778.422C638.37 775.05 640.508 772.407 643.315 770.401L638.665 763.892ZM629.532 775.282C627.658 779.8 626.736 784.621 626.736 789.705H634.736C634.736 785.61 635.474 781.837 636.922 778.347L629.532 775.282ZM657.373 656.922L553.223 823.621L560.008 827.86L664.158 661.16L657.373 656.922ZM558.759 822.363L543.524 812.695L539.238 819.45L554.472 829.118L558.759 822.363ZM544.773 818.192L648.924 651.493L642.139 647.254L537.989 813.953L544.773 818.192ZM643.388 652.75L658.622 662.418L662.909 655.664L647.675 645.996L643.388 652.75Z" fill="white" fill-opacity="0.1"/>
<path d="M250.895 417.57L299.367 464.333L318.387 399.486L349.091 391.258L319.248 480.237L391.67 543.937L361.39 552.05L310.624 504.082L290.644 571.007L260.223 579.158L290.95 487.82L220.757 425.646L250.895 417.57Z" fill="#161B40"/>
<path d="M250.895 417.57L253.672 414.691L252.045 413.121L249.86 413.706L250.895 417.57ZM299.367 464.333L296.59 467.212L301.345 471.8L303.205 465.459L299.367 464.333ZM318.387 399.486L317.352 395.622L315.182 396.203L314.549 398.36L318.387 399.486ZM349.091 391.258L352.884 392.53L355.253 385.466L348.056 387.395L349.091 391.258ZM319.248 480.237L315.456 478.965L314.611 481.485L316.607 483.24L319.248 480.237ZM391.67 543.937L392.705 547.801L399.921 545.867L394.311 540.933L391.67 543.937ZM361.39 552.05L358.643 554.958L360.267 556.492L362.425 555.914L361.39 552.05ZM310.624 504.082L313.371 501.175L308.65 496.714L306.791 502.938L310.624 504.082ZM290.644 571.007L291.679 574.87L293.837 574.292L294.476 572.151L290.644 571.007ZM260.223 579.158L256.431 577.883L254.053 584.952L261.258 583.022L260.223 579.158ZM290.95 487.82L294.741 489.095L295.586 486.583L293.602 484.825L290.95 487.82ZM220.757 425.646L219.722 421.782L212.536 423.707L218.105 428.64L220.757 425.646ZM248.118 420.449L296.59 467.212L302.144 461.454L253.672 414.691L248.118 420.449ZM303.205 465.459L322.226 400.611L314.549 398.36L295.528 463.207L303.205 465.459ZM319.423 403.349L350.127 395.122L348.056 387.395L317.352 395.622L319.423 403.349ZM345.299 389.987L315.456 478.965L323.041 481.509L352.884 392.53L345.299 389.987ZM316.607 483.24L389.028 546.94L394.311 540.933L321.89 477.233L316.607 483.24ZM390.634 540.073L360.355 548.187L362.425 555.914L392.705 547.801L390.634 540.073ZM364.137 549.143L313.371 501.175L307.877 506.99L358.643 554.958L364.137 549.143ZM306.791 502.938L286.811 569.862L294.476 572.151L314.457 505.227L306.791 502.938ZM289.608 567.143L259.187 575.294L261.258 583.022L291.679 574.87L289.608 567.143ZM264.014 580.433L294.741 489.095L287.159 486.544L256.431 577.883L264.014 580.433ZM293.602 484.825L223.409 422.651L218.105 428.64L288.298 490.814L293.602 484.825ZM221.792 429.509L251.93 421.434L249.86 413.706L219.722 421.782L221.792 429.509Z" fill="white" fill-opacity="0.1"/>
<path d="M405.01 203.596V229.084H258.818V203.596H405.01ZM345.537 141.34V296.613H318.438V141.34H345.537Z" fill="#161B40"/>
<path d="M405.01 203.596H409.01V199.596H405.01V203.596ZM405.01 229.084V233.084H409.01V229.084H405.01ZM258.818 229.084H254.818V233.084H258.818V229.084ZM258.818 203.596V199.596H254.818V203.596H258.818ZM345.537 141.34H349.537V137.34H345.537V141.34ZM345.537 296.613V300.613H349.537V296.613H345.537ZM318.438 296.613H314.438V300.613H318.438V296.613ZM318.438 141.34V137.34H314.438V141.34H318.438ZM401.01 203.596V229.084H409.01V203.596H401.01ZM405.01 225.084H258.818V233.084H405.01V225.084ZM262.818 229.084V203.596H254.818V229.084H262.818ZM258.818 207.596H405.01V199.596H258.818V207.596ZM341.537 141.34V296.613H349.537V141.34H341.537ZM345.537 292.613H318.438V300.613H345.537V292.613ZM322.438 296.613V141.34H314.438V296.613H322.438ZM318.438 145.34H345.537V137.34H318.438V145.34Z" fill="white" fill-opacity="0.05"/>
<path d="M405.01 203.596V229.084H258.818V203.596H405.01ZM345.537 141.34V296.613H318.438V141.34H345.537Z" fill="#161B40"/>
<path d="M405.01 203.596H409.01V199.596H405.01V203.596ZM405.01 229.084V233.084H409.01V229.084H405.01ZM258.818 229.084H254.818V233.084H258.818V229.084ZM258.818 203.596V199.596H254.818V203.596H258.818ZM345.537 141.34H349.537V137.34H345.537V141.34ZM345.537 296.613V300.613H349.537V296.613H345.537ZM318.438 296.613H314.438V300.613H318.438V296.613ZM318.438 141.34V137.34H314.438V141.34H318.438ZM401.01 203.596V229.084H409.01V203.596H401.01ZM405.01 225.084H258.818V233.084H405.01V225.084ZM262.818 229.084V203.596H254.818V229.084H262.818ZM258.818 207.596H405.01V199.596H258.818V207.596ZM341.537 141.34V296.613H349.537V141.34H341.537ZM345.537 292.613H318.438V300.613H345.537V292.613ZM322.438 296.613V141.34H314.438V296.613H322.438ZM318.438 145.34H345.537V137.34H318.438V145.34Z" fill="white" fill-opacity="0.05"/>
<path d="M1578.01 892.596V918.084H1431.82V892.596H1578.01ZM1518.54 830.34V985.613H1491.44V830.34H1518.54Z" fill="#161B40"/>
<path d="M1578.01 892.596H1582.01V888.596H1578.01V892.596ZM1578.01 918.084V922.084H1582.01V918.084H1578.01ZM1431.82 918.084H1427.82V922.084H1431.82V918.084ZM1431.82 892.596V888.596H1427.82V892.596H1431.82ZM1518.54 830.34H1522.54V826.34H1518.54V830.34ZM1518.54 985.613V989.613H1522.54V985.613H1518.54ZM1491.44 985.613H1487.44V989.613H1491.44V985.613ZM1491.44 830.34V826.34H1487.44V830.34H1491.44ZM1574.01 892.596V918.084H1582.01V892.596H1574.01ZM1578.01 914.084H1431.82V922.084H1578.01V914.084ZM1435.82 918.084V892.596H1427.82V918.084H1435.82ZM1431.82 896.596H1578.01V888.596H1431.82V896.596ZM1514.54 830.34V985.613H1522.54V830.34H1514.54ZM1518.54 981.613H1491.44V989.613H1518.54V981.613ZM1495.44 985.613V830.34H1487.44V985.613H1495.44ZM1491.44 834.34H1518.54V826.34H1491.44V834.34Z" fill="white" fill-opacity="0.05"/>
<path d="M773.609 114.178V137.762H651.441V114.178H773.609ZM773.609 174.969V198.553H651.441V174.969H773.609Z" fill="#161B40"/>
<path d="M773.609 114.178H777.609V110.178H773.609V114.178ZM773.609 137.762V141.762H777.609V137.762H773.609ZM651.441 137.762H647.441V141.762H651.441V137.762ZM651.441 114.178V110.178H647.441V114.178H651.441ZM773.609 174.969H777.609V170.969H773.609V174.969ZM773.609 198.553V202.553H777.609V198.553H773.609ZM651.441 198.553H647.441V202.553H651.441V198.553ZM651.441 174.969V170.969H647.441V174.969H651.441ZM769.609 114.178V137.762H777.609V114.178H769.609ZM773.609 133.762H651.441V141.762H773.609V133.762ZM655.441 137.762V114.178H647.441V137.762H655.441ZM651.441 118.178H773.609V110.178H651.441V118.178ZM769.609 174.969V198.553H777.609V174.969H769.609ZM773.609 194.553H651.441V202.553H773.609V194.553ZM655.441 198.553V174.969H647.441V198.553H655.441ZM651.441 178.969H773.609V170.969H651.441V178.969Z" fill="white" fill-opacity="0.05"/>
<path d="M368.096 713.193V735.459H296.611V713.193H368.096Z" fill="#161B40"/>
<path d="M368.096 713.193H372.096V709.193H368.096V713.193ZM368.096 735.459V739.459H372.096V735.459H368.096ZM296.611 735.459H292.611V739.459H296.611V735.459ZM296.611 713.193V709.193H292.611V713.193H296.611ZM364.096 713.193V735.459H372.096V713.193H364.096ZM368.096 731.459H296.611V739.459H368.096V731.459ZM300.611 735.459V713.193H292.611V735.459H300.611ZM296.611 717.193H368.096V709.193H296.611V717.193Z" fill="white" fill-opacity="0.05"/>
<path d="M1050.1 1019.19V1041.46H978.611V1019.19H1050.1Z" fill="#161B40"/>
<path d="M1050.1 1019.19H1054.1V1015.19H1050.1V1019.19ZM1050.1 1041.46V1045.46H1054.1V1041.46H1050.1ZM978.611 1041.46H974.611V1045.46H978.611V1041.46ZM978.611 1019.19V1015.19H974.611V1019.19H978.611ZM1046.1 1019.19V1041.46H1054.1V1019.19H1046.1ZM1050.1 1037.46H978.611V1045.46H1050.1V1037.46ZM982.611 1041.46V1019.19H974.611V1041.46H982.611ZM978.611 1023.19H1050.1V1015.19H978.611V1023.19Z" fill="white" fill-opacity="0.05"/>
</g>
<defs>
<clipPath id="clip0_154_2">
<rect width="1920" height="1080" fill="white"/>
</clipPath>
</defs>
</svg>
