<svg width="54" height="48" viewBox="0 0 54 48" fill="none" xmlns="http://www.w3.org/2000/svg">
<path d="M53.535 12.1772C54.7257 16.1679 53.6168 22.6725 50.3569 26.9092C48.5085 29.3114 45.6161 35.0424 42.4116 35.1146C41.9602 35.1146 44.4283 33.5758 43.8655 34.6897C43.853 34.7144 43.8393 34.7384 43.8241 34.7617C42.0752 37.4458 37.8042 41.2809 33.9221 43.4074C33.2011 43.8024 32.67 44.3841 31.9945 44.6428C31.8184 44.7103 30.9438 45.1834 30.7217 45.1696C30.6412 45.1646 31.1725 44.6238 31.1111 44.6428C31.0817 44.6519 31.2711 44.9738 31.2514 44.9931C31.1148 45.1279 30.9658 45.1755 30.7585 45.3483C29.6105 46.3055 28.0696 48.1042 26.8742 47.9953C26.3661 47.949 25.746 47.6023 25.2851 47.1131C25.0035 46.8141 24.4023 46.5837 24.2258 46.4073C23.8811 46.2915 23.5093 45.846 23.1664 45.7015C17.8695 42.702 12.8258 37.6923 11.5133 36.5264C7.82392 33.6087 1.06874 25.2684 0.2134 18.7056C-0.854653 12.4143 2.24175 5.78099 6.03932 3.17857C13.5327 -2.95009 22.8781 0.880317 26.3437 5.472C26.7051 5.95085 27.0026 6.43797 27.2273 6.92295C28.1644 8.94491 28.2529 11.0453 25.8141 12.1772C25.8141 5.64824 31.9009 0.355472 39.4094 0.355472C46.9178 0.355472 53.535 5.64825 53.535 12.1772Z" fill="#FF3737"/>
</svg>
